<svg width="20" height="20" viewBox="0 0 20 20" fill="none" xmlns="http://www.w3.org/2000/svg">
    <path d="M10 20C15.5228 20 20 15.5228 20 10C20 4.47715 15.5228 0 10 0C4.47715 0 0 4.47715 0 10C0 15.5228 4.47715 20 10 20Z" fill="#0060FF" fill-opacity="0.1"/>
    <path d="M7.75 12.5C7.75 13.0955 7.43234 13.6457 6.91667 13.9434C6.401 14.2411 5.76567 14.2411 5.25 13.9434C4.73433 13.6457 4.41667 13.0955 4.41667 12.5C4.41667 11.5796 5.16286 10.8334 6.08333 10.8334C7.00381 10.8334 7.75 11.5796 7.75 12.5Z" fill="#0060FF"/>
    <path d="M15.5 12.5C15.5 13.0955 15.1823 13.6457 14.6667 13.9434C14.151 14.2411 13.5157 14.2411 13 13.9434C12.4843 13.6457 12.1667 13.0955 12.1667 12.5C12.1667 11.5796 12.9129 10.8334 13.8333 10.8334C14.7538 10.8334 15.5 11.5796 15.5 12.5Z" fill="#0060FF"/>
    <path d="M4.73279 8.0115L6.06916 7.98689C7.01265 6.45789 8.24005 5.83337 9.90334 5.83337C11.8735 5.83337 13.445 6.59018 14.3684 7.69155L15.5413 7.9592C16.7286 8.24839 17.5 8.89444 17.4943 9.89121L17.5 10.6449C17.5 11.5617 16.8404 12.3247 15.7421 12.4877C15.679 11.3956 14.8359 10.5311 13.8035 10.5311C12.7654 10.5311 11.9194 11.4017 11.862 12.5L8.0135 12.4908C7.95327 11.3956 7.10729 10.528 6.07203 10.528C5.06258 10.528 4.23381 11.3525 4.1363 12.4108C3.70901 12.2724 3.33333 11.9309 3.33333 11.3771V9.36514C3.33333 8.54373 3.81798 8.09149 4.73279 8.0115ZM10.1917 8.29287C10.3083 8.30073 10.4249 8.30858 10.5443 8.31644C12.0457 8.4238 13.7945 7.98911 13.7717 7.89746C13.6637 7.49419 12.2362 6.78193 10.5045 6.68242C10.3424 6.67194 10.1917 6.66933 10.0439 6.66671L10.1917 8.29287ZM9.29825 8.33337L9.16023 6.66671C8.0139 6.77244 7.3858 7.2538 7.0619 8.09965C7.03655 8.17478 7.98855 8.23877 9.29825 8.33337Z" fill="#0060FF"/>
</svg>
