<svg width="20" height="20" viewBox="0 0 20 20" fill="none" xmlns="http://www.w3.org/2000/svg">
    <path d="M10 20C15.5228 20 20 15.5228 20 10C20 4.47715 15.5228 0 10 0C4.47715 0 0 4.47715 0 10C0 15.5228 4.47715 20 10 20Z" fill="#00C718" fill-opacity="0.100825"/>
    <path d="M7.43418 12.5507C7.65659 12.7728 7.61604 13.1595 7.35431 13.4202C7.00903 13.764 6.0764 13.9035 6.0764 13.9035C6.0764 13.9035 6.25211 12.938 6.56114 12.6303C6.82287 12.3696 7.20993 12.328 7.43357 12.5507H7.43418ZM12.3492 12.0202C12.4328 13.1198 12.0777 13.9831 11.2065 14.8513L11.0566 15L9.53291 12.7851C9.03772 13.0378 8.26544 12.8383 7.69959 12.2748C7.13313 11.7106 6.93285 10.9409 7.19764 10.4368L5 8.91812L5.14929 8.76883C5.99714 7.92508 6.86281 7.57265 7.95395 7.64117C10.1657 5.03465 12.8702 4.67855 14.6538 5.21209L14.7582 5.2433L14.7889 5.34731C15.3247 7.12293 14.9536 9.80287 12.3492 12.0202ZM11.749 9.43882C12.4359 9.45289 13.038 8.90711 13.0785 8.22122C13.1014 7.89524 12.9893 7.57414 12.7681 7.33274C12.547 7.09134 12.2362 6.95072 11.9081 6.94365C11.22 6.92897 10.6179 7.47597 10.578 8.16125C10.555 8.48733 10.6673 8.80853 10.8886 9.04994C11.1099 9.29136 11.4208 9.43191 11.749 9.43882Z" fill="#00C718"/>
</svg>
