<svg width="20" height="20" viewBox="0 0 20 20" fill="none" xmlns="http://www.w3.org/2000/svg">
    <path d="M10 20C15.5228 20 20 15.5228 20 10C20 4.47715 15.5228 0 10 0C4.47715 0 0 4.47715 0 10C0 15.5228 4.47715 20 10 20Z" fill="#FF7828" fill-opacity="0.1"/>
    <path d="M6.72671 5.98739L5.88076 6.47581C5.88076 6.47581 7.8382 8.11572 8.25363 8.49143L10.3904 7.26917L6.72671 5.98739ZM4.3232 11.86L2.76832 10.4209L3.48783 10.0055C3.48783 10.0055 4.36805 10.4171 4.90868 10.7265C5.63442 11.1527 6.43378 10.4053 7.13269 10.0639L12.6852 6.85819C13.0789 6.63089 13.5304 6.51937 13.968 6.47798C14.7769 6.42115 15.436 6.5751 15.8795 6.77894C16.0796 6.87471 16.1781 6.96699 16.2252 7.06413C16.4952 7.64157 15.7471 8.44638 15.2516 8.73246L13.1405 9.95126L11.0722 16.95L10.2237 17.4399C10.2237 17.4399 10.151 14.5236 10.1181 13.9336C10.0863 13.3926 10.1013 12.6506 9.69909 11.9382L7.80483 12.7957C7.39639 12.9818 6.92079 13.0202 6.42275 12.91L6.04242 12.8313C5.46995 12.7019 4.8631 12.3562 4.3232 11.86Z" fill="#FF7828"/>
</svg>
